<svg width="113" height="25" viewBox="0 0 113 25" fill="none" xmlns="http://www.w3.org/2000/svg"><path d="M0.75 2.69908C0.75 1.48458 1.73458 0.5 2.94908 0.5H11.551C12.7655 0.5 13.75 1.48458 13.75 2.69908V4.4005C13.75 5.00775 13.2577 5.50004 12.6505 5.50004H1.84954C1.24229 5.50004 0.75 5.00775 0.75 4.4005V2.69908Z"></path><path d="M0.75 9.59954C0.75 8.99224 1.24229 8.5 1.84954 8.5H22.551C23.7655 8.5 24.7501 9.48453 24.7501 10.6991V16.4005C24.7501 17.0077 24.2578 17.5 23.6506 17.5H2.94908C1.73458 17.5 0.75 16.5154 0.75 15.3009V9.59954Z"></path><path d="M11.75 21.5995C11.75 20.9923 12.2423 20.5 12.8495 20.5H23.6505C24.2577 20.5 24.75 20.9923 24.75 21.5995V22.3009C24.75 23.5154 23.7654 24.5 22.5509 24.5H13.9491C12.7346 24.5 11.75 23.5154 11.75 22.3009V21.5995Z"></path><path d="M38.3455 15.241H40.6572L44.9499 22.2582H50.2059L45.4452 14.7456C48.0872 13.8375 49.628 11.8012 49.628 8.85671C49.628 4.72899 46.7389 2.5 42.0881 2.5H33.75V22.2582H38.3455V15.241ZM38.3455 11.4985V6.38009H41.8404C44.0144 6.38009 45.115 7.31571 45.115 8.93927C45.115 10.5353 44.0144 11.4985 41.8404 11.4985H38.3455Z"></path><path d="M58.113 22.5607C61.0026 22.5607 63.6446 21.1023 64.7178 18.3229L61.0305 17.1396C60.6177 18.4055 59.5444 19.0659 58.1682 19.0659C56.4896 19.0659 55.3064 17.9377 55.0036 15.9563H64.8278V14.8006C64.8278 10.7002 62.4335 7.45312 58.0309 7.45312C53.8477 7.45312 50.7656 10.7002 50.7656 14.9932C50.7656 19.5062 53.7378 22.5607 58.113 22.5607ZM57.9757 10.8655C59.5991 10.8655 60.4525 11.9662 60.4799 13.2595H55.1413C55.5815 11.6635 56.6274 10.8655 57.9757 10.8655Z"></path><path d="M67.3281 18.378C67.3281 21.35 68.8967 22.3957 72.0335 22.3957C73.0794 22.3957 73.9051 22.3133 74.6755 22.2031V18.5982C74.1801 18.6532 73.9324 18.6807 73.4097 18.6807C72.309 18.6807 71.6759 18.4606 71.6759 17.2498V11.3884H74.5103V7.75595H71.6759V3.73828H67.3281V7.75595H65.4844V11.3884H67.3281V18.378Z"></path><path d="M90.4203 15.0207C90.4203 10.5077 87.4212 7.45312 83.1555 7.45312C78.8628 7.45312 75.8906 10.5077 75.8906 15.0207C75.8906 19.5337 78.8628 22.5607 83.1555 22.5607C87.4212 22.5607 90.4203 19.5337 90.4203 15.0207ZM80.2663 15.0207C80.2663 12.489 81.3943 11.0581 83.1555 11.0581C84.9171 11.0581 86.0451 12.489 86.0451 15.0207C86.0451 17.5524 84.9171 18.9833 83.1555 18.9833C81.3943 18.9833 80.2663 17.5524 80.2663 15.0207Z"></path><path d="M106.28 15.0207C106.28 10.5077 103.281 7.45312 99.0148 7.45312C94.7222 7.45312 91.75 10.5077 91.75 15.0207C91.75 19.5337 94.7222 22.5607 99.0148 22.5607C103.281 22.5607 106.28 19.5337 106.28 15.0207ZM96.1257 15.0207C96.1257 12.489 97.2537 11.0581 99.0148 11.0581C100.776 11.0581 101.904 12.489 101.904 15.0207C101.904 17.5524 100.776 18.9833 99.0148 18.9833C97.2537 18.9833 96.1257 17.5524 96.1257 15.0207Z"></path><path d="M112.747 2.5H108.344V22.2582H112.747V2.5Z"></path></svg>